<svg fill="currentColor" height="200px" width="200px" version="1.1" id="Capa_1" xmlns="http://www.w3.org/2000/svg" xmlns:xlink="http://www.w3.org/1999/xlink" viewBox="0 0 28.937 28.937" xml:space="preserve"><g id="SVGRepo_bgCarrier" stroke-width="0"></g><g id="SVGRepo_tracerCarrier" stroke-linecap="round" stroke-linejoin="round"></g><g id="SVGRepo_iconCarrier"> <g> <path d="M28.859,26.124L14.957,2.245c-0.101-0.173-0.287-0.279-0.489-0.279c-0.198,0-0.383,0.106-0.481,0.279L0.079,26.124 c-0.102,0.175-0.106,0.389-0.006,0.565c0.103,0.174,0.287,0.282,0.488,0.282h27.814c0.201,0,0.389-0.108,0.488-0.282 c0.047-0.088,0.074-0.186,0.074-0.281C28.938,26.309,28.911,26.211,28.859,26.124z M16.369,10.441l-0.462,9.493h-2.389 l-0.461-9.493H16.369z M14.711,24.794h-0.042c-1.089,0-1.843-0.817-1.843-1.907c0-1.131,0.774-1.907,1.885-1.907 s1.846,0.775,1.867,1.907C16.579,23.977,15.844,24.794,14.711,24.794z"></path> <g> </g> <g> </g> <g> </g> <g> </g> <g> </g> <g> </g> <g> </g> <g> </g> <g> </g> <g> </g> <g> </g> <g> </g> <g> </g> <g> </g> <g> </g> </g> </g></svg>