<svg fill="currentColor" height="200px" width="200px" version="1.1" xmlns="http://www.w3.org/2000/svg" viewBox="0 0 512 512" xmlns:xlink="http://www.w3.org/1999/xlink" enable-background="new 0 0 512 512"><g id="SVGRepo_bgCarrier" stroke-width="0"></g><g id="SVGRepo_tracerCarrier" stroke-linecap="round" stroke-linejoin="round"></g><g id="SVGRepo_iconCarrier"> <g> <path d="m256,320c-52.934,0-96,43.066-96,96s43.066,96 96,96 96-43.066 96-96-43.066-96-96-96zm-48,112.583c-8.836,0-16-7.164-16-16s7.164-16 16-16c8.836,0 16,7.164 16,16s-7.164,16-16,16zm48,48c-8.836,0-16-7.164-16-16s7.164-16 16-16c8.836,0 16,7.164 16,16s-7.164,16-16,16zm0-96c-8.836,0-16-7.164-16-16s7.164-16 16-16c8.836,0 16,7.164 16,16s-7.164,16-16,16zm48,48c-8.836,0-16-7.164-16-16s7.164-16 16-16c8.836,0 16,7.164 16,16s-7.164,16-16,16z"></path> <path d="m448,112h-9.234c-22.212-65.097-82.627-112-153.68-112h-58.18c-43.695,0-84.719,17.469-115.524,49.195-19.486,20.07-33.318,44.353-40.829,70.805h-6.553c-17.672,0-32,14.328-32,32v48c0,17.672 14.328,32 32,32h0.016v28.373c0,21.114 10.974,40.141 27.943,52.705 19.988,14.798 35.488,35.294 44.177,59.094 18.105-48.719 64.92-83.589 119.864-83.589 54.943,0 101.759,34.87 119.865,83.588 8.69-23.804 24.193-44.302 44.187-59.1 16.972-12.564 27.948-31.592 27.948-52.709v-36.362c17.672,0 32-14.328 32-32v-48c0-17.672-14.328-32-32-32zm-264,104c-22.094,0-40-17.906-40-40 0-22.094 17.906-40 40-40 22.094,0 40,17.906 40,40 0,22.094-17.906,40-40,40zm144,0c-22.094,0-40-17.906-40-40 0-22.094 17.906-40 40-40 22.094,0 40,17.906 40,40 0,22.094-17.906,40-40,40z"></path> <path d="m454.625,377.375c-7.273-7.289-17.617-10.672-27.75-8.961-10.156,1.648-18.898,8.078-23.5,17.273l-32,64c-6.156,12.32-3.742,27.203 6,36.938l16,16c6.047,6.055 14.203,9.375 22.625,9.375 1.703,0 3.414-0.133 5.125-0.414 10.156-1.648 18.898-8.078 23.5-17.273l32-64c6.156-12.32 3.742-27.203-6-36.938l-16-16z"></path> <path d="m108.625,385.688c-4.602-9.195-13.344-15.625-23.5-17.273-10.133-1.641-20.484,1.68-27.75,8.961l-16,16c-9.742,9.734-12.156,24.617-6,36.938l32,64c4.602,9.195 13.344,15.625 23.5,17.273 1.711,0.28 3.422,0.413 5.125,0.413 8.414,0 16.578-3.32 22.625-9.375l16-16c9.742-9.734 12.156-24.617 6-36.938l-32-63.999z"></path> </g> </g></svg>