<svg fill="currentColor" height="200px" width="200px" version="1.1" id="Layer_1" xmlns="http://www.w3.org/2000/svg" xmlns:xlink="http://www.w3.org/1999/xlink" viewBox="0 0 512.001 512.001" xml:space="preserve"><g id="SVGRepo_bgCarrier" stroke-width="0"></g><g id="SVGRepo_tracerCarrier" stroke-linecap="round" stroke-linejoin="round"></g><g id="SVGRepo_iconCarrier"> <g> <g> <path d="M421.617,60.794C313.806-30.67,152.265-17.426,60.796,90.386s-78.219,269.352,29.593,360.821 c107.801,91.463,269.352,78.219,360.821-29.592C542.667,313.803,529.427,152.262,421.617,60.794z M256,45.199 c38.403,0,74.406,10.275,105.415,28.217l-74.53,129.09c-19.259-11.147-42.91-10.907-61.779-0.014L150.584,73.414 C181.596,55.473,217.597,45.199,256,45.199z M150.585,438.585c-31.044-17.884-57.943-43.925-77.144-77.184 C54.239,328.142,45.137,291.827,45.17,256h149.06c-0.024,22.252,12.01,42.615,30.877,53.51L150.585,438.585z M233.294,282.763 c-14.781-12.541-16.598-34.688-4.057-49.469c12.541-14.781,34.688-16.598,49.469-4.057c14.781,12.541,16.597,34.688,4.057,49.469 C270.223,293.488,248.074,295.303,233.294,282.763z M438.56,361.401c-19.202,33.259-46.101,59.3-77.144,77.184l-74.53-129.09 c19.283-11.105,30.9-31.707,30.901-53.495h149.044C466.864,291.827,457.762,328.142,438.56,361.401z"></path> </g> </g> </g></svg>