<svg fill="currentColor" viewBox="0 0 24 24" xmlns="http://www.w3.org/2000/svg" id="rain-alt" class="icon glyph"><g id="SVGRepo_bgCarrier" stroke-width="0"></g><g id="SVGRepo_tracerCarrier" stroke-linecap="round" stroke-linejoin="round"></g><g id="SVGRepo_iconCarrier"><path d="M21,9a4,4,0,0,1-4,4H6A3,3,0,1,1,7.08,7.21a5,5,0,0,1,9-2.09A4.08,4.08,0,0,1,17,5,4,4,0,0,1,21,9ZM16.89,21.45l2-4a1,1,0,1,0-1.78-.9l-2,4a1,1,0,0,0,.44,1.34A.93.93,0,0,0,16,22,1,1,0,0,0,16.89,21.45Zm-8,0,2-4a1,1,0,1,0-1.78-.9l-2,4a1,1,0,0,0,.44,1.34A.93.93,0,0,0,8,22,1,1,0,0,0,8.89,21.45Zm5-2,1-2a1,1,0,1,0-1.78-.9l-1,2a1,1,0,0,0,.44,1.34A.93.93,0,0,0,13,20,1,1,0,0,0,13.89,19.45Zm-8,0,1-2a1,1,0,0,0-1.78-.9l-1,2a1,1,0,0,0,.44,1.34A.93.93,0,0,0,5,20,1,1,0,0,0,5.89,19.45Z"></path></g></svg>