<svg version="1.1" id="Uploaded to svgrepo.com" xmlns="http://www.w3.org/2000/svg" xmlns:xlink="http://www.w3.org/1999/xlink" viewBox="0 0 32 32" xml:space="preserve" fill="currentColor"><g id="SVGRepo_bgCarrier" stroke-width="0"></g><g id="SVGRepo_tracerCarrier" stroke-linecap="round" stroke-linejoin="round"></g><g id="SVGRepo_iconCarrier"> <style type="text/css"> .sharpcorners_een{fill:#111918;} .st0{fill:#111918;} </style> <path class="sharpcorners_een" d="M30,14c0,2.209-1.791,4-4,4H7c-2.761,0-5-2.239-5-5s2.239-5,5-5c0.009,0,0.017,0.002,0.025,0.003 C7.28,4.646,10.078,2,13.5,2c2.447,0,4.576,1.354,5.685,3.352C19.749,5.132,20.358,5,21,5c2.761,0,5,2.239,5,5 C28.209,10,30,11.791,30,14z M18,19h-5.375L12,24h2l-1,5l6-7h-2L18,19z"></path> </g></svg>