<!-- <svg viewBox="0 0 24 24" fill="none" xmlns="http://www.w3.org/2000/svg"><g id="SVGRepo_bgCarrier" stroke-width="0"></g><g id="SVGRepo_tracerCarrier" stroke-linecap="round" stroke-linejoin="round"></g><g id="SVGRepo_iconCarrier"><path d="M22 20h-3.278l-1.014-3.646c-.081.043-.17.076-.265.095-1.758.364-3.576.551-5.443.551-1.868 0-3.767-.197-5.564-.571a.999.999 0 0 1-.153-.045L5.278 20H2a1 1 0 1 0 0 2h20a1 1 0 1 0 0-2ZM6.817 14.466l.027.005C8.507 14.817 10.268 15 12 15c1.733 0 3.415-.173 5.037-.51a.995.995 0 0 1 .148-.019l-1.087-3.912a1.001 1.001 0 0 1-.275.094A20.875 20.875 0 0 1 12 11a21.351 21.351 0 0 1-4.108-.404l-1.075 3.87ZM8.43 8.665A19.33 19.33 0 0 0 12 9c1.181 0 2.34-.105 3.457-.313.039-.007.077-.012.116-.015L14.16 3.59a.801.801 0 0 0-.77-.59h-2.78c-.36 0-.67.24-.77.59L8.43 8.665Z" fill="currentColor"></path></g></svg> -->

<svg version="1.1" id="_x32_" xmlns="http://www.w3.org/2000/svg" xmlns:xlink="http://www.w3.org/1999/xlink" viewBox="0 0 512 512" xml:space="preserve" fill="currentColor"><g id="SVGRepo_bgCarrier" stroke-width="0"></g><g id="SVGRepo_tracerCarrier" stroke-linecap="round" stroke-linejoin="round"></g><g id="SVGRepo_iconCarrier"> <style type="text/css">  .st0{fill:currentColor;}  </style> <g> <path class="st0" d="M397.281,141.281H256H114.719C51.453,141.281,0,192.75,0,256s51.453,114.719,114.719,114.719H256h141.281 C460.531,370.719,512,319.25,512,256S460.531,141.281,397.281,141.281z M114.719,316.266c-33.281,0-60.266-26.984-60.266-60.266 s26.984-60.25,60.266-60.25s60.25,26.969,60.25,60.25S148,316.266,114.719,316.266z M256,316.266 c-33.281,0-60.266-26.984-60.266-60.266s26.984-60.25,60.266-60.25v-0.016c33.281,0,60.25,26.984,60.25,60.266 S289.281,316.266,256,316.266z M397.281,316.266c-33.281,0-60.266-26.984-60.266-60.266s26.984-60.266,60.266-60.266 s60.266,26.984,60.266,60.266S430.563,316.266,397.281,316.266z"></path> </g> </g></svg>